<?xml version="1.0" encoding="UTF-8"?>
<svg id="Layer_1" data-name="Layer 1" xmlns="http://www.w3.org/2000/svg" viewBox="0 0 1279 1279">
  <defs>
    <style>
      .cls-1 {
        fill: #020202;
      }

      .cls-2 {
        fill: #f3f2f2;
      }

      .cls-3 {
        fill: #50c0d3;
      }
    </style>
  </defs>
  <rect class="cls-1" width="1279" height="1279"/>
  <g>
    <path class="cls-2" d="M1118.22,673.03c-30.45-.5-60.94.18-91.4-.09-286.82-2.6-574.04-1.22-861.01-2.1-4.47.55-5.3,8.93-7.59,13.41-29.48,57.68-121.08,9.56-85.27-49.27,22.52-37,78.94-27.1,90.08,13.96l952.73,2.02c6.8-32.44,39.79-51.6,70.82-36.77,34.23,16.36,37.35,64.43,5.7,85.12-27.22,17.8-64.58,4.81-74.05-26.28ZM1160.1,630.13c-33.82,5.35-29.12,58.81,6.72,56.78,38.46-2.18,33.06-63.07-6.72-56.78ZM109.12,633.15c-32.41,4.72-28.5,56.85,5.63,56.63,38.9-.25,37.38-62.9-5.63-56.63Z"/>
    <path class="cls-3" d="M368.37,414.89c18.11-9.11,41.73-13.39,60.68-4.18,2.46,1.2,7.89,6.08,9.81,6.14,1.02.03,15.46-6.25,18.74-7.23,19.57-5.83,53.44-7.88,67.29,10.24,10.74,14.06,9.13,68.15,7.46,86.51-1.33,14.63-4.23,20.12-20.54,18.56-14.24-1.36-8.18-10.1-7.46-19.56,1.79-23.38,3.5-48.81-2.26-71.71-3.06-12.16-12.58-12.93-23.77-11.33-16.27,2.33-28.14,9.13-28.04,27.05.12,20.42,3.1,41.6,3.17,62.01.04,11.79-21.46,12.75-26.85,2.76-4.18-7.74-1.76-25.37-2.19-34.81-.49-10.59-1.81-38.75-5.85-47.15-11.53-23.96-42.99.46-48.97,17.41-4.55,21.9-2.14,44.93-3.74,67.26-2.61,5.82-19.16,4.55-23.87,1.91-6.56-3.68-2.69-15.45-2.57-21.35.58-28.92-.69-57.91.17-86.83,2.54-11.34,30.89-10.54,28.79,4.29Z"/>
    <path class="cls-3" d="M769.36,415.9c6.28-.87,11.6-4.71,18.01-6.5,13.84-3.85,29.19-3.44,42.37,2.61,2.6,1.2,8.1,5.68,10.18,5.89,1.58.16,20.1-7.47,24.43-8.52,20.44-4.97,57.57-5.03,65.74,19.28,6.61,19.71,5.83,59.84,3.26,80.71-.92,7.45-.46,13.27-8.19,15.81s-15.1,2.66-21.35-3.31l3.59-38.45c.25-15.29-.26-30.77-3.3-45.78s-10.94-15.32-25.13-13.65c-12.92,1.52-25.36,7.22-26.65,21.35-1.55,16.92.58,39.49,1,57.08.09,3.92,1.69,7.62,1.09,12.01-1.36,9.99-22.21,10.24-26.82.72-1.34-2.77-2.02-13.06-2.22-16.78-1.05-19.59,0-39.26-3.25-58.75-3.59-21.56-25.33-18.05-38.23-6.71-24.34,21.4-12.87,52.09-15.49,80.51-.87,9.48-9.66,9.15-17.53,8.44-6.78-.61-9.91-1.14-10.57-8.43-2.03-22.36.49-46.67,1.09-69.01.24-8.92-1.56-25.13.17-32.83,2.54-11.32,30.15-9.89,27.79,4.3Z"/>
    <path class="cls-3" d="M790.74,832.27c-2.72,2.77-5.36,5.67-8.46,8.04-66.04,50.56-232.88,47.55-295.39-8.45-6.2-5.55-15.87-14.37-10.37-23.33,8.69-14.16,20.78,3.81,27.38,9.33,55.45,46.34,217.29,52.75,270,1.06,6.59-6.46,12.52-22.11,24.43-14.49,11.52,7.37-1.64,21.79-7.58,27.84Z"/>
  </g>
</svg>